<?xml version="1.0" encoding="utf-8"?>
<!-- Generator: Adobe Illustrator 27.2.0, SVG Export Plug-In . SVG Version: 6.00 Build 0)  -->
<svg version="1.1" id="Layer_1" xmlns="http://www.w3.org/2000/svg" xmlns:xlink="http://www.w3.org/1999/xlink" x="0px" y="0px"
	 viewBox="0 0 37.05 41.96" style="enable-background:new 0 0 37.05 41.96;" xml:space="preserve">
<style type="text/css">
	.st0{fill:#FFFFFF;}
</style>
<g>
	<path class="st0" d="M22.32,17.68c-1.18,0-2.11,1.01-2.11,2.28s0.95,2.28,2.11,2.28c1.18,0,2.11-1.01,2.11-2.28
		S23.48,17.68,22.32,17.68z M14.77,17.68c-1.18,0-2.11,1.01-2.11,2.28s0.95,2.28,2.11,2.28c1.18,0,2.11-1.01,2.11-2.28
		C16.9,18.7,15.95,17.68,14.77,17.68z"/>
	<path class="st0" d="M32.38,0.47H4.66c-2.34,0-4.24,1.9-4.24,4.24v27.72c0,2.34,1.9,4.24,4.24,4.24h23.46l-1.1-3.79l2.65,2.44
		l2.5,2.3l4.47,3.87V4.71C36.62,2.37,34.71,0.47,32.38,0.47z M24.39,27.26c0,0-0.74-0.89-1.37-1.65c2.71-0.77,3.74-2.44,3.74-2.44
		c-0.85,0.56-1.65,0.95-2.38,1.22c-1.03,0.43-2.03,0.7-3,0.89c-1.99,0.37-3.81,0.27-5.36-0.02c-1.18-0.23-2.19-0.54-3.04-0.89
		c-0.48-0.19-0.99-0.41-1.51-0.7c-0.06-0.04-0.12-0.06-0.19-0.1c-0.04-0.02-0.06-0.04-0.08-0.04c-0.37-0.21-0.58-0.35-0.58-0.35
		s0.99,1.63,3.62,2.42c-0.62,0.79-1.39,1.7-1.39,1.7c-4.57-0.14-6.31-3.12-6.31-3.12c0-6.6,2.98-11.96,2.98-11.96
		c2.98-2.21,5.79-2.15,5.79-2.15l0.21,0.25c-3.72,1.05-5.42,2.69-5.42,2.69s0.46-0.25,1.22-0.58c2.21-0.97,3.97-1.22,4.7-1.3
		c0.12-0.02,0.23-0.04,0.35-0.04c1.26-0.17,2.69-0.21,4.18-0.04c1.97,0.23,4.08,0.81,6.23,1.97c0,0-1.63-1.55-5.15-2.61l0.29-0.33
		c0,0,2.83-0.06,5.79,2.15c0,0,2.98,5.36,2.98,11.96C30.7,24.14,28.96,27.12,24.39,27.26z"/>
</g>
</svg>
