<?xml version="1.0" encoding="utf-8"?>
<!-- Generator: Adobe Illustrator 27.2.0, SVG Export Plug-In . SVG Version: 6.00 Build 0)  -->
<svg version="1.1" id="Layer_1" xmlns="http://www.w3.org/2000/svg" xmlns:xlink="http://www.w3.org/1999/xlink" x="0px" y="0px"
	 viewBox="0 0 37.92 37.92" style="enable-background:new 0 0 37.92 37.92;" xml:space="preserve">
<style type="text/css">
	.st0{fill:#FFFFFF;}
</style>
<g>
	<path class="st0" d="M18.96,37.58c-10.27,0-18.63-8.36-18.63-18.63S8.69,0.33,18.96,0.33c10.27,0,18.63,8.35,18.63,18.63
		S29.23,37.58,18.96,37.58z M18.96,2.33c-9.17,0-16.63,7.46-16.63,16.63c0,9.17,7.46,16.63,16.63,16.63
		c9.17,0,16.63-7.46,16.63-16.63C35.58,9.79,28.13,2.33,18.96,2.33z"/>
</g>
<g>
	<path class="st0" d="M20.73,15.41c0-1.18-1.01-1.98-2.63-1.98c-1.56,0-2.7,0.59-3.44,1.62l-2.04-1.33c1.18-1.6,3.08-2.57,5.71-2.57
		c3.1,0,5.16,1.41,5.16,3.84c0,3.43-3.6,3.75-3.6,6.24h-2.68C17.21,18.11,20.73,17.52,20.73,15.41z M16.87,24.62
		c0-0.91,0.7-1.62,1.69-1.62c0.97,0,1.67,0.72,1.67,1.62s-0.7,1.64-1.67,1.64C17.57,26.27,16.87,25.53,16.87,24.62z"/>
</g>
</svg>
