<?xml version="1.0" encoding="utf-8"?>
<!-- Generator: Adobe Illustrator 27.2.0, SVG Export Plug-In . SVG Version: 6.00 Build 0)  -->
<svg version="1.1" id="Layer_1" xmlns="http://www.w3.org/2000/svg" xmlns:xlink="http://www.w3.org/1999/xlink" x="0px" y="0px"
	 viewBox="0 0 35.77 29.26" style="enable-background:new 0 0 35.77 29.26;" xml:space="preserve">
<style type="text/css">
	.st0{fill:#FFFFFF;}
</style>
<path class="st0" d="M23.66,0.34c0.59,0,1.17,0,1.76,0c0.02,0.02,0.03,0.04,0.05,0.04c1.66,0.21,3.09,0.91,4.27,2.1
	c0.11,0.11,0.21,0.11,0.35,0.08c0.85-0.19,1.67-0.44,2.48-0.77c0.63-0.26,1.23-0.56,1.89-0.94c-0.57,1.7-1.57,2.95-2.96,3.89
	c0.06,0.07,0.09,0.07,0.14,0.06c1.16-0.18,2.29-0.48,3.38-0.92c0.1-0.04,0.22-0.18,0.34-0.02c-0.96,1.33-2.06,2.52-3.39,3.49
	c-0.16,0.11-0.15,0.25-0.14,0.4c0.06,1.72-0.1,3.42-0.5,5.09c-1.08,4.61-3.36,8.5-7.01,11.54c-3.28,2.74-7.11,4.16-11.36,4.47
	c-4.43,0.32-8.55-0.63-12.35-2.93c-0.07-0.04-0.18-0.05-0.19-0.22c3.82,0.3,7.28-0.62,10.41-2.99c-3.32-0.32-5.52-1.96-6.71-5.06
	c1.1,0.17,2.12,0.19,3.2-0.12c-1.72-0.42-3.09-1.26-4.14-2.58c-1.05-1.33-1.57-2.84-1.57-4.58c1,0.49,1.99,0.85,3.14,0.86
	C0.79,8.31,1.33,3.52,2.69,1.69c0.13,0.15,0.26,0.3,0.39,0.45c1.21,1.39,2.57,2.6,4.11,3.62c3.04,2.02,6.39,3.16,10.04,3.41
	c0.23,0.02,0.34-0.01,0.24-0.27c-0.02-0.05-0.02-0.12-0.03-0.17c-0.62-3.91,1.89-7.5,5.78-8.28C23.37,0.43,23.54,0.47,23.66,0.34z"
	/>
</svg>
